<?xml version="1.0" encoding="utf-8"?>
<!-- Generator: Adobe Illustrator 26.0.1, SVG Export Plug-In . SVG Version: 6.00 Build 0)  -->
<svg version="1.1" id="Layer_1" xmlns="http://www.w3.org/2000/svg" xmlns:xlink="http://www.w3.org/1999/xlink" x="0px" y="0px"
	 viewBox="0 0 1000 1000" style="enable-background:new 0 0 1000 1000;" xml:space="preserve">
<style type="text/css">
	.st0{fill:url(#SVGID_1_);}
	.st1{fill:url(#SVGID_00000182504554715489777360000012809800950009716359_);}
	.st2{fill:url(#SVGID_00000148631912772863282550000013870030226062804359_);}
	.st3{fill:url(#SVGID_00000067944171576895309310000008480509495314142876_);}
	.st4{fill:url(#SVGID_00000059298568366591067380000018220452931641880969_);}
	.st5{fill:url(#SVGID_00000005245072358284751930000005415431029083801479_);}
	.st6{fill:url(#SVGID_00000044167966011278126920000005077878112374847157_);}
	.st7{fill:url(#SVGID_00000040568574013059329340000017887294285471729049_);}
	.st8{fill:url(#SVGID_00000135672708863024009990000005955952168670446748_);}
	.st9{fill:url(#SVGID_00000140015067284476846480000013253157075927728550_);}
	.st10{fill:url(#SVGID_00000170242854455118320280000001804230819040721582_);}
	.st11{fill:url(#SVGID_00000133512579716239521540000005823321116011704484_);}
	.st12{fill:url(#SVGID_00000142889018645049386200000012132307309053492149_);}
	.st13{fill:url(#SVGID_00000089542429015447803420000000760667283156838309_);}
	.st14{fill:url(#SVGID_00000076577109909044543490000011325658283608170667_);}
	.st15{fill:url(#SVGID_00000100379679558633176340000009691181499457290639_);}
	.st16{fill:url(#SVGID_00000122683653596399047030000008745419602300670099_);}
	.st17{fill:url(#SVGID_00000147929904643995806230000016314497960530687154_);}
	.st18{fill:url(#SVGID_00000024716301852405443470000017118650232629324728_);}
</style>
<g>
	<g>
		<g>
			<g>
				<g>
					<linearGradient id="SVGID_1_" gradientUnits="userSpaceOnUse" x1="448.8039" y1="577.8105" x2="448.8039" y2="551.8301">
						<stop  offset="0" style="stop-color:#B937D6"/>
						<stop  offset="1" style="stop-color:#5A8EF4"/>
					</linearGradient>
					<path class="st0" d="M463.63,562.63c0,5.07-1.8,8.78-5.39,11.13c-2.05,1.34-5.37,2.01-9.97,2.01h-14.3v-25.98h14.3
						c4.57,0,7.89,0.67,9.97,2.02c1.74,1.14,3.09,2.72,4.03,4.73C463.18,558.38,463.63,560.41,463.63,562.63z M459.2,562.63
						c0-3.59-1.07-6.11-3.22-7.55c-1.75-1.18-4.52-1.76-8.31-1.76h-9.37v18.83h9.37c3.89,0,6.7-0.6,8.41-1.81
						C458.16,568.89,459.2,566.32,459.2,562.63z"/>
					
						<linearGradient id="SVGID_00000026129634912157188610000004560830274728372393_" gradientUnits="userSpaceOnUse" x1="506.0238" y1="577.8105" x2="506.0238" y2="551.8301">
						<stop  offset="0" style="stop-color:#B937D6"/>
						<stop  offset="1" style="stop-color:#5A8EF4"/>
					</linearGradient>
					<path style="fill:url(#SVGID_00000026129634912157188610000004560830274728372393_);" d="M508.19,575.77h-4.33v-25.98h4.33
						V575.77z"/>
					
						<linearGradient id="SVGID_00000020360723814772000260000007646073798963260833_" gradientUnits="userSpaceOnUse" x1="565.0298" y1="577.8105" x2="565.0298" y2="551.8301">
						<stop  offset="0" style="stop-color:#B937D6"/>
						<stop  offset="1" style="stop-color:#5A8EF4"/>
					</linearGradient>
					<path style="fill:url(#SVGID_00000020360723814772000260000007646073798963260833_);" d="M579.53,569.62
						c0,2.39-0.43,4-1.28,4.86c-0.86,0.86-2.46,1.28-4.81,1.28h-16.81c-2.35,0-3.95-0.43-4.81-1.28c-0.86-0.86-1.28-2.47-1.28-4.86
						v-13.69c0-2.38,0.43-4,1.28-4.86s2.46-1.28,4.81-1.28h16.81c2.48,0,4.12,0.45,4.91,1.36c0.79,0.91,1.18,2.62,1.18,5.14
						l-4.33,0.86v-3.83h-20.34v18.83h20.34v-7.6h-10.52v-3.32h14.85V569.62z"/>
					
						<linearGradient id="SVGID_00000049219032969690845040000008400027552541589407_" gradientUnits="userSpaceOnUse" x1="623.3798" y1="577.8105" x2="623.3798" y2="551.8301">
						<stop  offset="0" style="stop-color:#B937D6"/>
						<stop  offset="1" style="stop-color:#5A8EF4"/>
					</linearGradient>
					<path style="fill:url(#SVGID_00000049219032969690845040000008400027552541589407_);" d="M625.54,575.77h-4.33v-25.98h4.33
						V575.77z"/>
					
						<linearGradient id="SVGID_00000147216584142673255490000011485517244503826874_" gradientUnits="userSpaceOnUse" x1="676.1682" y1="577.8105" x2="676.1682" y2="551.8301">
						<stop  offset="0" style="stop-color:#B937D6"/>
						<stop  offset="1" style="stop-color:#5A8EF4"/>
					</linearGradient>
					<path style="fill:url(#SVGID_00000147216584142673255490000011485517244503826874_);" d="M690.24,553.31h-11.93v22.46h-4.33
						v-22.46H662.1v-3.53h28.14V553.31z"/>
					
						<linearGradient id="SVGID_00000133510007543963144930000012546291870186735257_" gradientUnits="userSpaceOnUse" x1="734.571" y1="577.8105" x2="734.571" y2="551.8301">
						<stop  offset="0" style="stop-color:#B937D6"/>
						<stop  offset="1" style="stop-color:#5A8EF4"/>
					</linearGradient>
					<path style="fill:url(#SVGID_00000133510007543963144930000012546291870186735257_);" d="M751.21,575.77h-4.78l-3.32-6.39
						h-17.57l-3.32,6.39h-4.28l14.2-25.98h4.63L751.21,575.77z M741.34,566.05l-7-13.29l-7,13.29H741.34z"/>
					
						<linearGradient id="SVGID_00000105419423735821439060000003458788492511002003_" gradientUnits="userSpaceOnUse" x1="800.8265" y1="577.8105" x2="800.8265" y2="551.8301">
						<stop  offset="0" style="stop-color:#B937D6"/>
						<stop  offset="1" style="stop-color:#5A8EF4"/>
					</linearGradient>
					<path style="fill:url(#SVGID_00000105419423735821439060000003458788492511002003_);" d="M812.83,575.77h-24.02v-25.98h4.33
						v22.36h19.69V575.77z"/>
				</g>
			</g>
			<g>
				
					<linearGradient id="SVGID_00000114774256941832449160000003054332503284533947_" gradientUnits="userSpaceOnUse" x1="369.4721" y1="526.9645" x2="369.4721" y2="432.1922">
					<stop  offset="0" style="stop-color:#B937D6"/>
					<stop  offset="1" style="stop-color:#5A8EF4"/>
				</linearGradient>
				<path style="fill:url(#SVGID_00000114774256941832449160000003054332503284533947_);" d="M399.89,484.97
					c-0.62-2.82-1.24-4.83-1.8-6.04c-1.46-3.41-4.46-6.69-8.95-9.94c-3.72-2.66-7.71-4.74-12.01-6.28
					c-6.69-2.41-10.28-3.75-10.74-3.99c-4.3-2.26-6.44-5.17-6.44-8.73c0-2.88,1.39-5.23,4.12-7c2.41-1.61,5.14-2.41,8.11-2.41
					c5.57,0,10.9,1.92,15.98,5.79l9.2-10.65c-5.48-6.38-13.72-9.57-24.68-9.57c-7.34,0-13.81,2.04-19.38,6.07
					c-6.13,4.52-9.2,10.37-9.2,17.55c0,8.14,3.53,14.52,10.53,19.1c6.53,3,13.1,6.04,19.63,9.1c7,3.28,10.53,7.4,10.53,12.32
					c0,4.12-1.3,7.59-3.87,10.37c-2.6,2.79-5.94,4.15-10.06,4.15c-8.79-1.21-16.25-5.51-22.38-12.94l-10.15,10.19
					c3.22,3.22,6.75,6.59,10.65,10.15c5.73,4.92,12.82,7.4,21.3,7.4c7.89,0,14.92-2.85,21.11-8.54c6.16-5.7,9.26-12.45,9.26-20.28
					C400.63,488.94,400.39,487.02,399.89,484.97z"/>
				
					<linearGradient id="SVGID_00000074430127679355397510000017597572239714132364_" gradientUnits="userSpaceOnUse" x1="466.4077" y1="526.9645" x2="466.4077" y2="432.1922">
					<stop  offset="0" style="stop-color:#B937D6"/>
					<stop  offset="1" style="stop-color:#5A8EF4"/>
				</linearGradient>
				<path style="fill:url(#SVGID_00000074430127679355397510000017597572239714132364_);" d="M466.36,424.23l-46.01,93.31h17.31
					l28.7-59.91l29.04,59.91h17.06L466.36,424.23z"/>
				
					<linearGradient id="SVGID_00000144317067948362851490000018061027227052656004_" gradientUnits="userSpaceOnUse" x1="574.6125" y1="526.9645" x2="574.6125" y2="432.1922">
					<stop  offset="0" style="stop-color:#B937D6"/>
					<stop  offset="1" style="stop-color:#5A8EF4"/>
				</linearGradient>
				<path style="fill:url(#SVGID_00000144317067948362851490000018061027227052656004_);" d="M574.57,424.23l-46.01,93.31h17.31
					l28.7-59.91l29.04,59.91h17.06L574.57,424.23z"/>
				
					<linearGradient id="SVGID_00000111896999906099083880000018113851833155603380_" gradientUnits="userSpaceOnUse" x1="677.0745" y1="526.9645" x2="677.0745" y2="432.1922">
					<stop  offset="0" style="stop-color:#B937D6"/>
					<stop  offset="1" style="stop-color:#5A8EF4"/>
				</linearGradient>
				<path style="fill:url(#SVGID_00000111896999906099083880000018113851833155603380_);" d="M693.79,427.02v49.38l-51.33-51.33
					v93.44h17.43v-51.3l51.8,51.8v-91.98H693.79z"/>
				
					<linearGradient id="SVGID_00000106830753879539878600000007542102694560993211_" gradientUnits="userSpaceOnUse" x1="774.5828" y1="526.9645" x2="774.5828" y2="432.1922">
					<stop  offset="0" style="stop-color:#B937D6"/>
					<stop  offset="1" style="stop-color:#5A8EF4"/>
				</linearGradient>
				<path style="fill:url(#SVGID_00000106830753879539878600000007542102694560993211_);" d="M810.11,428.1l-69.47-0.12V442
					l43.1,0.37l-44.68,75.17h69.35v-14.27h-43.31L810.11,428.1z"/>
				
					<linearGradient id="SVGID_00000111879549206342494420000016917975701874114469_" gradientUnits="userSpaceOnUse" x1="872.989" y1="526.9645" x2="872.989" y2="432.1922">
					<stop  offset="0" style="stop-color:#B937D6"/>
					<stop  offset="1" style="stop-color:#5A8EF4"/>
				</linearGradient>
				<path style="fill:url(#SVGID_00000111879549206342494420000016917975701874114469_);" d="M908.5,428.1l-69.47-0.12V442
					l43.1,0.37l-44.64,75.17h69.35v-14.27h-43.34L908.5,428.1z"/>
			</g>
		</g>
		<g>
			<g>
				
					<linearGradient id="SVGID_00000148622107961784001040000004219502361134863524_" gradientUnits="userSpaceOnUse" x1="136.8827" y1="538.3923" x2="257.109" y2="538.3923">
					<stop  offset="0" style="stop-color:#B937D6"/>
					<stop  offset="1" style="stop-color:#5A8EF4"/>
				</linearGradient>
				<path style="fill:url(#SVGID_00000148622107961784001040000004219502361134863524_);" d="M139.3,468.76
					c-3.63,11.42-3.41,24.35,2.28,38.97c23.75,53.12,83.23,16.39,88.92,42.2c1.67,15.57-22.54,27.38-40.01,34.1
					c-1.6,0.62-3.37-0.16-4.08-1.73l-15.8-35.16c-3.31-7.16-11.79-10.29-18.95-6.98l-5.58,2.58l26.93,59.34
					c1.99,4.38,6.9,6.86,11.74,5.63c26.61-7.24,59.15-16.79,70.53-45.54c5.21-15.71-1.01-34.4-14.7-43.84
					c-11.8-7.61-23.35-8.39-34.77-9.13C205.43,509.21,141.03,511.73,139.3,468.76z"/>
				
					<linearGradient id="SVGID_00000090975432132880829410000016195536977889801618_" gradientUnits="userSpaceOnUse" x1="164.8314" y1="513.8096" x2="206.0487" y2="452.9204">
					<stop  offset="0" style="stop-color:#2E3192"/>
					<stop  offset="1" style="stop-color:#B937D6"/>
				</linearGradient>
				<path style="fill:url(#SVGID_00000090975432132880829410000016195536977889801618_);" d="M252.59,442.84l0.87,10.26
					c0.15,1.75,2.36,2.43,3.46,1.06L301.29,399c1-1.24,0.17-3.09-1.42-3.17l-78.64-3.85c-1.94-0.09-2.81,2.4-1.23,3.53l10.74,7.69
					c-37.25,11.75-80.84,32.2-91.44,65.56c1.73,42.98,66.13,40.46,66.5,40.44c-4.42-0.29-8.82-0.58-13.21-1.25
					c-10.84-1.81-15.47-3.51-19.17-13.25C163.76,465.82,221.11,449.36,252.59,442.84z"/>
			</g>
			
				<linearGradient id="SVGID_00000129167200794568907220000013879971193824105364_" gradientUnits="userSpaceOnUse" x1="91.5" y1="424.0706" x2="129.584" y2="424.0706">
				<stop  offset="0" style="stop-color:#2E3192"/>
				<stop  offset="1" style="stop-color:#B937D6"/>
			</linearGradient>
			<circle style="fill:url(#SVGID_00000129167200794568907220000013879971193824105364_);" cx="110.54" cy="424.07" r="19.04"/>
			
				<linearGradient id="SVGID_00000122716312478843898240000010335740118804562355_" gradientUnits="userSpaceOnUse" x1="264.895" y1="514.4113" x2="283.937" y2="514.4113">
				<stop  offset="0" style="stop-color:#2E3192"/>
				<stop  offset="1" style="stop-color:#B937D6"/>
			</linearGradient>
			<circle style="fill:url(#SVGID_00000122716312478843898240000010335740118804562355_);" cx="274.42" cy="514.41" r="9.52"/>
			
				<linearGradient id="SVGID_00000134225262224796694730000009880902284568015550_" gradientUnits="userSpaceOnUse" x1="106.0975" y1="566.4738" x2="129.584" y2="566.4738">
				<stop  offset="0" style="stop-color:#B937D6"/>
				<stop  offset="1" style="stop-color:#5A8EF4"/>
			</linearGradient>
			<circle style="fill:url(#SVGID_00000134225262224796694730000009880902284568015550_);" cx="117.84" cy="566.47" r="11.74"/>
		</g>
	</g>
	
		<linearGradient id="SVGID_00000012470820612175459900000002186391137512854164_" gradientUnits="userSpaceOnUse" x1="170.5046" y1="468.7574" x2="193.1735" y2="468.7574">
		<stop  offset="0" style="stop-color:#B937D6"/>
		<stop  offset="1" style="stop-color:#5A8EF4"/>
	</linearGradient>
	<circle style="fill:url(#SVGID_00000012470820612175459900000002186391137512854164_);" cx="181.84" cy="468.76" r="11.33"/>
</g>
</svg>
